<?xml version="1.0" encoding="UTF-8" standalone="no"?>
<!-- Created with Inkscape (http://www.inkscape.org/) -->

<svg
   width="210mm"
   height="297mm"
   viewBox="0 0 210 297"
   version="1.1"
   id="svg4077"
   inkscape:version="1.1.2 (0a00cf5339, 2022-02-04)"
   sodipodi:docname="tuto-reto-5-mosaico.svg"
   xmlns:inkscape="http://www.inkscape.org/namespaces/inkscape"
   xmlns:sodipodi="http://sodipodi.sourceforge.net/DTD/sodipodi-0.dtd"
   xmlns="http://www.w3.org/2000/svg"
   xmlns:svg="http://www.w3.org/2000/svg">
  <sodipodi:namedview
     id="namedview4079"
     pagecolor="#ffffff"
     bordercolor="#666666"
     borderopacity="1.0"
     inkscape:pageshadow="2"
     inkscape:pageopacity="0.0"
     inkscape:pagecheckerboard="0"
     inkscape:document-units="mm"
     showgrid="false"
     inkscape:zoom="0.69664703"
     inkscape:cx="396.18342"
     inkscape:cy="101.19903"
     inkscape:window-width="933"
     inkscape:window-height="1016"
     inkscape:window-x="20"
     inkscape:window-y="20"
     inkscape:window-maximized="0"
     inkscape:current-layer="layer1" />
  <defs
     id="defs4074" />
  <g
     inkscape:label="Capa 1"
     inkscape:groupmode="layer"
     id="layer1">
    <path
       style="fill:#800000;stroke:#000000;stroke-width:0.264583px;stroke-linecap:butt;stroke-linejoin:miter;stroke-opacity:1"
       d="m 38.712425,23.188289 c 82.866605,-0.382762 81.903765,-0.57266 81.903765,-0.57266 l 23.67194,24.584333 0.90053,69.245898 8.63589,-18.795421 -10.84197,43.072651 -11.50365,-41.76117 8.52908,17.51806 0.13649,-67.535332 -20.68847,-20.600934 -81.397861,0.369411 z"
       id="path4114" />
    <path
       style="fill:#d40000;stroke:#000000;stroke-width:0.264583px;stroke-linecap:butt;stroke-linejoin:miter;stroke-opacity:1"
       d="m 146.69449,168.99263 -0.84268,17.64713 23.99239,-1.13048 0.44508,10.69658 20.84423,-18.99422 -31.60164,-15.49743 8.56765,10.66987 z"
       id="path4116" />
    <path
       style="fill:#ff8080;stroke:#000000;stroke-width:0.264583px;stroke-linecap:butt;stroke-linejoin:miter;stroke-opacity:1"
       d="m 141.40554,24.332126 18.47052,28.539548 17.36674,-18.697506 6.7651,8.235328 6.51883,-32.7810893 -34.55989,-6.6642222 7.30067,13.1741525 z"
       id="path4118" />
    <path
       style="fill:#d40000;stroke:#000000;stroke-width:0.264583px;stroke-linecap:butt;stroke-linejoin:miter;stroke-opacity:1"
       d="m 179.17293,90.86753 -9.88655,12.31665 -8.64035,-1.47023 10.1076,9.07949 -13.86698,18.75833 17.5418,-15.96031 11.3093,16.67836 -4.19259,-24.68522 13.02877,-4.6332 -14.29574,-2.875175 z"
       id="path4120" />
    <path
       style="fill:#ff2a2a;stroke:#000000;stroke-width:0.264583px;stroke-linecap:butt;stroke-linejoin:miter;stroke-opacity:1"
       d="m 177.64929,273.73455 -19.10252,-6.75619 17.81923,-26.83344 -11.80184,-4.67623 32.55261,-22.72393 2.55621,32.64164 -14.61174,-5.05455 z"
       id="path4122" />
    <path
       style="fill:#aa0000;stroke:#000000;stroke-width:0.264583px;stroke-linecap:butt;stroke-linejoin:miter;stroke-opacity:1"
       d="m 121.61612,221.18779 -14.50047,55.88483 c 0,0 -12.562916,-1.82333 -11.275173,-3.44784 1.287743,-1.62452 22.176493,-55.3537 22.176493,-55.3537 l -11.72025,-7.65228 26.7548,-25.17925 -1.04147,42.75369 z"
       id="path4124" />
    <path
       style="fill:#ff0000;stroke:#000000;stroke-width:0.264583px;stroke-linecap:butt;stroke-linejoin:miter;stroke-opacity:1"
       d="M 67.041304,275.17957 96.705403,205.8046 80.4825,150.26842 l 13.497573,8.30506 -17.531416,-24.41076 -9.925121,28.75022 9.806437,-9.6655 13.469384,52.77673 -28.20426,69.27854 z"
       id="path4126" />
    <path
       style="fill:#ffaaaa;stroke:#000000;stroke-width:0.264583px;stroke-linecap:butt;stroke-linejoin:miter;stroke-opacity:1"
       d="M 111.23109,56.071745 84.829376,106.29672 44.281769,105.85906 34.76018,210.1945 l -13.825443,1.57407 22.255121,32.45174 30.953323,-36.8728 -32.439866,0.52074 8.754581,-95.96806 35.862476,-0.47327 31.687698,-54.401235 z"
       id="path4128" />
    <path
       style="fill:#501616;stroke:#000000;stroke-width:0.264583px;stroke-linecap:butt;stroke-linejoin:miter;stroke-opacity:1"
       d="M 9.8242386,56.644404 66.295065,55.41007 61.69598,48.311162 90.578235,55.801736 66.691181,68.80231 69.707291,59.687218 8.8391443,60.884466 Z"
       id="path4130" />
    <path
       style="fill:#280b0b;stroke:#000000;stroke-width:0.264583px;stroke-linecap:butt;stroke-linejoin:miter;stroke-opacity:1"
       d="m 32.96802,84.097975 -13.420426,14.415905 7.898558,5.59456 -12.395276,14.00793 19.563913,-11.52442 0.934654,5.99958 3.382552,-13.809121 -6.898627,-4.516007 15.838654,-8.405939 z"
       id="path4132" />
    <path
       style="fill:#ffd5d5;stroke:#000000;stroke-width:0.264583px;stroke-linecap:butt;stroke-linejoin:miter;stroke-opacity:1"
       d="m 24.299487,258.42406 -9.054263,12.27808 -12.9249115,2.26245 15.5271035,9.81533 -8.591387,11.89828 20.175146,-13.11777 c 0,0 9.226357,21.77444 9.388068,12.84332 0.161711,-8.93114 -5.428403,-21.83974 -5.428403,-21.83974 l 16.972105,-6.5663 z"
       id="path4134" />
    <path
       style="fill:#ff5555;stroke:#000000;stroke-width:0.264583px;stroke-linecap:butt;stroke-linejoin:miter;stroke-opacity:1"
       d="m 122.00333,142.91137 -6.60932,13.18157 -16.126472,9.27828 14.042042,5.81413 7.42975,15.40546 7.11374,-16.78666 9.54978,-5.86458 -11.73805,-6.83928 z"
       id="path4136" />
  </g>
</svg>
