<?xml version="1.0" encoding="UTF-8" standalone="no"?>
<!-- Created with Inkscape (http://www.inkscape.org/) -->

<svg
   width="210mm"
   height="297mm"
   viewBox="0 0 210 297"
   version="1.1"
   id="svg5"
   inkscape:version="1.1.2 (0a00cf5339, 2022-02-04)"
   sodipodi:docname="tuto-reto-4-comecocos.svg"
   xmlns:inkscape="http://www.inkscape.org/namespaces/inkscape"
   xmlns:sodipodi="http://sodipodi.sourceforge.net/DTD/sodipodi-0.dtd"
   xmlns="http://www.w3.org/2000/svg"
   xmlns:svg="http://www.w3.org/2000/svg">
  <sodipodi:namedview
     id="namedview7"
     pagecolor="#ffffff"
     bordercolor="#666666"
     borderopacity="1.0"
     inkscape:pageshadow="2"
     inkscape:pageopacity="0.0"
     inkscape:pagecheckerboard="0"
     inkscape:document-units="mm"
     showgrid="false"
     inkscape:zoom="0.32"
     inkscape:cx="1543.75"
     inkscape:cy="407.8125"
     inkscape:window-width="933"
     inkscape:window-height="1016"
     inkscape:window-x="20"
     inkscape:window-y="20"
     inkscape:window-maximized="0"
     inkscape:current-layer="layer1" />
  <defs
     id="defs2" />
  <g
     inkscape:label="Capa 1"
     inkscape:groupmode="layer"
     id="layer1">
    <path
       style="fill:#ffff00;fill-rule:evenodd;stroke-width:0.264583;stroke:#000000;stroke-opacity:1"
       id="path31"
       sodipodi:type="arc"
       sodipodi:cx="111.30972"
       sodipodi:cy="116.70251"
       sodipodi:rx="27.136084"
       sodipodi:ry="24.958195"
       sodipodi:start="0"
       sodipodi:end="5.3877144"
       sodipodi:arc-type="slice"
       d="M 138.44581,116.70251 A 27.136084,24.958195 0 0 1 117.334,141.0379 27.136084,24.958195 0 0 1 86.848449,127.50754 a 27.136084,24.958195 0 0 1 7.576069,-30.342934 27.136084,24.958195 0 0 1 33.849362,0.05794 l -16.96416,19.479963 z" />
    <path
       style="fill:#000000;stroke:#000000;stroke-opacity:1"
       id="path1210"
       sodipodi:type="arc"
       sodipodi:cx="103.01244"
       sodipodi:cy="104.27572"
       sodipodi:rx="3.4185295"
       sodipodi:ry="3.2842658"
       sodipodi:start="0"
       sodipodi:end="6.2677391"
       sodipodi:arc-type="slice"
       d="m 106.43097,104.27572 a 3.4185295,3.2842658 0 0 1 -3.40533,3.28424 3.4185295,3.2842658 0 0 1 -3.431624,-3.25888 3.4185295,3.2842658 0 0 1 3.378824,-3.30941 3.4185295,3.2842658 0 0 1 3.45773,3.23332 l -3.41813,0.0507 z" />
    <path
       style="fill:#ff8080;stroke:#000000;stroke-opacity:1"
       id="path2089"
       sodipodi:type="arc"
       sodipodi:cx="103.40159"
       sodipodi:cy="-215.17551"
       sodipodi:rx="12.490224"
       sodipodi:ry="12.490224"
       sodipodi:start="0"
       sodipodi:end="5.2294951"
       sodipodi:arc-type="slice"
       d="m 115.89181,-215.17551 a 12.490224,12.490224 0 0 1 -9.23794,12.05937 12.490224,12.490224 0 0 1 -14.048802,-5.77917 12.490224,12.490224 0 0 1 1.921697,-15.06901 12.490224,12.490224 0 0 1 15.049575,-2.06836 l -6.17475,10.85717 z"
       transform="rotate(122.58794)" />
    <path
       style="fill:#ff8080;stroke:#000000;stroke-opacity:1"
       id="path2563"
       sodipodi:type="arc"
       sodipodi:cx="241.47466"
       sodipodi:cy="-24.181335"
       sodipodi:rx="12.490224"
       sodipodi:ry="12.490224"
       sodipodi:start="0"
       sodipodi:end="1.0333986"
       sodipodi:arc-type="slice"
       d="m 253.96488,-24.181335 a 12.490224,12.490224 0 0 1 -6.09645,10.729648 l -6.39377,-10.729648 z"
       transform="rotate(64.478721)" />
    <path
       style="fill:#ffffff;stroke:#000000;stroke-opacity:1"
       id="path2892"
       sodipodi:type="arc"
       sodipodi:cx="73.09726"
       sodipodi:cy="169.35759"
       sodipodi:rx="15.303084"
       sodipodi:ry="13.349215"
       sodipodi:start="2.167058"
       sodipodi:end="5.2294951"
       sodipodi:arc-type="arc"
       d="m 64.503764,180.40327 a 15.303084,13.349215 0 0 1 -4.399005,-18.09905 15.303084,13.349215 0 0 1 20.557836,-4.55048"
       sodipodi:open="true" />
  </g>
</svg>
