<?xml version="1.0" encoding="UTF-8" standalone="no"?>
<!-- Created with Inkscape (http://www.inkscape.org/) -->

<svg
   width="210mm"
   height="297mm"
   viewBox="0 0 210 297"
   version="1.1"
   id="svg4611"
   inkscape:version="1.1.2 (0a00cf5339, 2022-02-04)"
   sodipodi:docname="trebol.svg"
   xmlns:inkscape="http://www.inkscape.org/namespaces/inkscape"
   xmlns:sodipodi="http://sodipodi.sourceforge.net/DTD/sodipodi-0.dtd"
   xmlns="http://www.w3.org/2000/svg"
   xmlns:svg="http://www.w3.org/2000/svg">
  <sodipodi:namedview
     id="namedview4613"
     pagecolor="#ffffff"
     bordercolor="#666666"
     borderopacity="1.0"
     inkscape:pageshadow="2"
     inkscape:pageopacity="0.0"
     inkscape:pagecheckerboard="0"
     inkscape:document-units="mm"
     showgrid="false"
     inkscape:zoom="0.69664703"
     inkscape:cx="386.91246"
     inkscape:cy="205.5933"
     inkscape:window-width="933"
     inkscape:window-height="1016"
     inkscape:window-x="20"
     inkscape:window-y="20"
     inkscape:window-maximized="0"
     inkscape:current-layer="layer1"
     inkscape:rotation="-1" />
  <defs
     id="defs4608" />
  <g
     inkscape:label="Capa 1"
     inkscape:groupmode="layer"
     id="layer1">
    <path
       style="fill:#008000;stroke:#000000;stroke-width:0.114938px;stroke-linecap:butt;stroke-linejoin:miter;stroke-opacity:1"
       d="m 30.386773,31.681796 c 0,0 -22.1263071,-23.5422176 8.861529,-24.7032466 33.381201,-1.250701 7.680483,24.6957516 7.680483,24.6957516 0,0 28.197924,-31.0213666 24.642999,11.311949 -1.930336,22.987206 -23.867838,2.562522 -23.867838,2.562522 0,0 20.800003,25.871663 -10.972115,25.847485 -26.8321211,-0.02039 -5.391568,-24.042791 -5.391568,-24.042791 0,0 -22.7453331,16.554145 -23.6569131,-0.88518 C 5.7741829,9.9442404 30.386773,31.681796 30.386773,31.681796 Z"
       id="path5168"
       sodipodi:nodetypes="cscscscsc" />
    <path
       style="fill:#cccccc;stroke:#000000;stroke-width:0.188768px;stroke-linecap:butt;stroke-linejoin:miter;stroke-opacity:1"
       d="m 26.80585,143.58008 c 0,0 -29.421746,7.8346 -16.069163,-11.34839 13.352582,-19.18298 19.511147,-8.42193 19.511147,-8.42193 0,0 -3.257926,-28.534882 10.885023,-24.245942 14.142949,4.288942 14.962845,12.532162 14.962845,12.532162 0,0 10.515923,-26.242432 22.969865,-11.37342 12.453949,14.86901 -2.132904,25.89413 -2.132904,25.89413 0,0 33.852917,-5.4454 23.736617,12.25899 -12.381906,21.66938 -24.108676,6.12153 -24.108676,6.12153 0,0 9.897597,8.92635 -4.735312,23.24656 -15.332708,15.00505 -17.960926,-20.3315 -17.960926,-20.3315 0,0 -2.824228,18.3782 -15.286669,16.50582 C 1.2089857,158.80375 26.80585,143.58008 26.80585,143.58008 Z"
       id="path6556"
       sodipodi:nodetypes="cscscscscscsc" />
    <path
       style="fill:#ffd5d5;stroke:#000000;stroke-width:0.264583px;stroke-linecap:butt;stroke-linejoin:miter;stroke-opacity:1"
       d="M 126.87391,77.657771 C 107.9242,73.083908 107.9242,73.083908 107.9242,73.083908 l -0.51332,-22.152754 c 0,0 -19.931829,-35.363994 -4.10505,-17.126396 15.82679,18.237596 9.44889,6.999508 9.44889,6.999508 0,0 -7.98015,-52.239668 1.58891,-21.571191 9.56907,30.668479 6.91643,22.47469 6.91643,22.47469 0,0 6.34652,-60.144883 7.28881,-22.798109 0.71252,28.239821 0.29226,23.354449 0.29226,23.354449 0,0 15.20666,-57.728898 11.76328,-21.799662 -3.44338,35.929238 -4.743,25.005671 -4.743,25.005671 0,0 28.79918,-23.882603 19.39034,-6.257724 -23.19705,43.4533 -28.37784,38.445381 -28.37784,38.445381 z"
       id="path8021"
       sodipodi:nodetypes="cccscscscscsc" />
    <path
       style="fill:#ffd5d5;stroke:#000000;stroke-width:0.264583px;stroke-linecap:butt;stroke-linejoin:miter;stroke-opacity:1"
       d="m 177.16269,188.44231 c -44.28029,-0.37979 -44.82329,0.095 -44.82329,0.095 0,0 -20.28196,-93.701163 13.19789,-89.51748 33.47986,4.18368 32.12536,9.13734 32.12536,9.13734 l 0.42282,26.26967 c 0,0 20.10021,-15.5281 20.91544,6.54406 0.497,13.45603 -20.98072,3.67036 -20.98072,3.67036 l -0.34864,20.42439 c 0,0 -46.76231,-15.72442 -23.3411,1.25659 23.42121,16.98101 22.35452,5.73106 22.35452,5.73106 z"
       id="path9313"
       sodipodi:nodetypes="ccsccsccscc" />
    <path
       style="fill:#ffffff;stroke:#000000;stroke-width:0.264583px;stroke-linecap:butt;stroke-linejoin:miter;stroke-opacity:1"
       d="m 140.90854,124.48684 c 2.85737,-1.13939 19.74788,-6.59449 19.74788,-6.59449 0,0 7.86888,7.32144 2.30696,9.68181 -5.56193,2.36037 -22.05484,-3.08732 -22.05484,-3.08732 z"
       id="path9315" />
    <path
       style="fill:#280b0b;stroke:#000000;stroke-width:0.264583px;stroke-linecap:butt;stroke-linejoin:miter;stroke-opacity:1"
       d="m 162.90511,120.34018 -0.2986,3.5532 0.25972,3.53168 c 0,0 2.76678,0.30599 1.95402,-3.64428 -0.18414,-0.89499 -1.39789,-2.02896 -1.91514,-3.4406 z"
       id="path10057"
       sodipodi:nodetypes="cccsc" />
  </g>
</svg>
